<svg height="512" viewBox="0 0 64 64" width="512" xmlns="http://www.w3.org/2000/svg"><g id="computer-pencil-copywriting-editing-writing"><path d="m5 16h54a2 2 0 0 1 2 2v30a0 0 0 0 1 0 0h-58a0 0 0 0 1 0 0v-30a2 2 0 0 1 2-2z" fill="#2488ff"/><path d="m29 52h6v5h-6z" fill="#e9e9ea"/><path d="m22 57h20v4h-20z" fill="#898890"/><path d="m3 48h58a0 0 0 0 1 0 0v2a2 2 0 0 1 -2 2h-54a2 2 0 0 1 -2-2v-2a0 0 0 0 1 0 0z" fill="#787680"/><path d="m53 3a5.37 5.37 0 0 0 -4 2v39h-39v-37a4 4 0 0 1 4-4z" fill="#f5e0ad"/><path d="m57 7v5h-8v-5a4 4 0 1 1 8 0z" fill="#eb9a43"/><path d="m53 25v3h-8v-3a4 4 0 1 1 8 0z" fill="#e9e9ea"/><path d="m53 51-4 6-4-6 2-2 2 2 2-2z" fill="#e9e9ea"/><path d="m53 32v19l-2-2-2 2-2-2-2 2v-19z" fill="#dd636e"/><path d="m45 28h8v4h-8z" fill="#365e7d"/><path d="m59 15h-9v-2h7a1 1 0 0 0 1-1v-5a5.017 5.017 0 0 0 -4-4.9v-.1h-40a5 5 0 0 0 -5 5v8h-4a3.009 3.009 0 0 0 -3 3v32a3.009 3.009 0 0 0 3 3h23v3h-6a1 1 0 0 0 -1 1v4a1 1 0 0 0 1 1h20a1 1 0 0 0 1-1v-4a1 1 0 0 0 -1-1h-6v-3h9.13l3.04 4.55a.99.99 0 0 0 1.66 0l3.04-4.55h6.13a3.009 3.009 0 0 0 3-3v-32a3.009 3.009 0 0 0 -3-3zm-9-8a3 3 0 0 1 6 0v4h-6zm-9 51v2h-18v-2zm-11-2v-3h4v3zm14-5h-39a1 1 0 0 1 -1-1v-1h40zm0-4h-40v-29a1 1 0 0 1 1-1h4v27a1 1 0 0 0 1 1h34zm0-22v18h-33v-36a3.009 3.009 0 0 1 3-3h35.03a4.924 4.924 0 0 0 -1.03 3v13.1a5.017 5.017 0 0 0 -4 4.9zm5 30.2-2.71-4.07.71-.72 1.29 1.3a1.014 1.014 0 0 0 1.42 0l1.29-1.3.71.72zm3-6.61-.29-.3a1.008 1.008 0 0 0 -1.42 0l-1.29 1.3-1.29-1.3a1.008 1.008 0 0 0 -1.42 0l-.29.3v-15.59h6zm0-17.59h-6v-2h6zm0-4h-6v-2a3 3 0 0 1 6 0zm8 23a1 1 0 0 1 -1 1h-5v-2h6zm0-3h-6v-22a5.017 5.017 0 0 0 -4-4.9v-3.1h9a1 1 0 0 1 1 1z"/><path d="m14 7h31v2h-31z"/><path d="m14 12h31v2h-31z"/><path d="m14 17h27v2h-27z"/><path d="m14 22h27v2h-27z"/><path d="m14 27h27v2h-27z"/><path d="m14 32h27v2h-27z"/><path d="m14 37h27v2h-27z"/></g></svg>