<svg id="flat" height="512" viewBox="0 0 512 512" width="512" xmlns="http://www.w3.org/2000/svg"><path d="m288 128h184v216h-184z" fill="#51a37e"/><path d="m288 184h184v16h-184z" fill="#308c72"/><path d="m312 144h16v32h-16z" fill="#308c72"/><path d="m336 144h16v32h-16z" fill="#308c72"/><path d="m360 144h16v32h-16z" fill="#308c72"/><path d="m288 248h184v16h-184z" fill="#308c72"/><path d="m336 208h16v32h-16z" fill="#308c72"/><path d="m360 208h16v32h-16z" fill="#308c72"/><path d="m48 392h416v96h-416z" fill="#a6bce3"/><path d="m208 392h96v96h-96z" fill="#4e96ed"/><path d="m248 392h16v24h-16z" fill="#407de6"/><path d="m248 432h16v56h-16z" fill="#407de6"/><path d="m24 448h192v40h-192z" fill="#cad8ed"/><path d="m296 448h192v40h-192z" fill="#cad8ed"/><path d="m48 248h-24v-40h288l176 128v56h-464v-40h24z" fill="#cad8ed"/><path d="m48 248h240v104h-240z" fill="#7ab8f5"/><path d="m88 248h16v24h-16z" fill="#4e96ed"/><path d="m88 288h16v64h-16z" fill="#4e96ed"/><path d="m136 248h16v104h-16z" fill="#4e96ed"/><path d="m184 248h16v104h-16z" fill="#4e96ed"/><path d="m232 248h16v104h-16z" fill="#4e96ed"/><g fill="#7ab8f5"><path d="m312 344h24v16h-24z"/><path d="m352 344h24v16h-24z"/><path d="m392 344h24v16h-24z"/><path d="m432 344h24v16h-24z"/><path d="m312 312h24v16h-24z"/><path d="m352 312h24v16h-24z"/><path d="m392 312h24v16h-24z"/><path d="m312 280h24v16h-24z"/><path d="m352 280h24v16h-24z"/><path d="m312 248h24v16h-24z"/></g><circle cx="88" cy="440" fill="#51a37e" r="24"/><path d="m80 440h16v48h-16z" fill="#b36f42"/><circle cx="160" cy="440" fill="#51a37e" r="24"/><path d="m152 440h16v48h-16z" fill="#b36f42"/><circle cx="352" cy="440" fill="#51a37e" r="24"/><path d="m344 440h16v48h-16z" fill="#b36f42"/><circle cx="424" cy="440" fill="#51a37e" r="24"/><path d="m416 440h16v48h-16z" fill="#b36f42"/><path d="m200 160h88v16h-88z" fill="#f7d179"/><path d="m288 144h-72a8.00235 8.00235 0 0 1 -5.65723-2.34277l-32-32 11.31446-11.31446 29.65625 29.65723h68.68652z" fill="#f7d179"/><path d="m312 128h-16v-48h-40v-16h48a8.00039 8.00039 0 0 1 8 8z" fill="#f7d179"/><path d="m328 56h16v72h-16z" fill="#f7d179"/><path d="m384 128h-16v-56a8.00235 8.00235 0 0 1 2.34277-5.65723l24-24 11.31446 11.31446-21.65723 21.65625z" fill="#f7d179"/><path d="m448 80h16v48h-16z" fill="#f7d179"/><circle cx="440" cy="160" fill="#b6e3cc" r="8"/><circle cx="440" cy="224" fill="#b6e3cc" r="8"/><circle cx="184" cy="168" fill="#f7c04a" r="16"/><path d="m184 192a24 24 0 1 1 24-24 24.0275 24.0275 0 0 1 -24 24zm0-32a8 8 0 1 0 8 8 8.00917 8.00917 0 0 0 -8-8z" fill="#fcedc0"/><circle cx="176" cy="96" fill="#f7c04a" r="16"/><path d="m176 120a24 24 0 1 1 24-24 24.0275 24.0275 0 0 1 -24 24zm0-32a8 8 0 1 0 8 8 8.00917 8.00917 0 0 0 -8-8z" fill="#fcedc0"/><circle cx="240" cy="72" fill="#f7c04a" r="16"/><path d="m240 96a24 24 0 1 1 24-24 24.0275 24.0275 0 0 1 -24 24zm0-32a8 8 0 1 0 8 8 8.00917 8.00917 0 0 0 -8-8z" fill="#fcedc0"/><circle cx="336" cy="40" fill="#f7c04a" r="16"/><path d="m336 64a24 24 0 1 1 24-24 24.0275 24.0275 0 0 1 -24 24zm0-32a8 8 0 1 0 8 8 8.00917 8.00917 0 0 0 -8-8z" fill="#fcedc0"/><circle cx="408" cy="40" fill="#f7c04a" r="16"/><path d="m408 64a24 24 0 1 1 24-24 24.0275 24.0275 0 0 1 -24 24zm0-32a8 8 0 1 0 8 8 8.00917 8.00917 0 0 0 -8-8z" fill="#fcedc0"/><circle cx="456" cy="64" fill="#f7c04a" r="16"/><path d="m456 88a24 24 0 1 1 24-24 24.0275 24.0275 0 0 1 -24 24zm0-32a8 8 0 1 0 8 8 8.00917 8.00917 0 0 0 -8-8z" fill="#fcedc0"/></svg>