<svg id="Capa_1" enable-background="new 0 0 512 512" height="512" viewBox="0 0 512 512" width="512" xmlns="http://www.w3.org/2000/svg"><g><path d="m512 64.001v442.575c0 2.995-2.428 5.424-5.424 5.424h-351.738c-2.995 0-5.424-2.428-5.424-5.424v-379.15l68.859-68.849h288.303c2.996 0 5.424 2.429 5.424 5.424z" fill="#5392f9"/><path d="m506.576 58.577h-30.905c2.995 0 5.424 2.428 5.424 5.424v442.575c0 2.995-2.428 5.424-5.424 5.424h30.905c2.995 0 5.424-2.429 5.424-5.424v-442.575c0-2.995-2.428-5.424-5.424-5.424z" fill="#4071f7"/><path d="m453.424 5.425v442.575c0 2.995-2.428 5.424-5.424 5.424h-351.738c-2.995 0-5.422-2.428-5.422-5.424v-379.147l68.855-68.853h288.305c2.996 0 5.424 2.43 5.424 5.425z" fill="#ddebfd"/><path d="m448 0h-30.905c2.995 0 5.424 2.43 5.424 5.425v442.575c0 2.995-2.428 5.424-5.424 5.424h30.905c2.995 0 5.424-2.429 5.424-5.424v-442.575c0-2.995-2.428-5.425-5.424-5.425z" fill="#bed9fd"/><path d="m159.695 0-68.856 68.853h63.429c2.995 0 5.426-2.426 5.426-5.421v-63.432z" fill="#bed9fd"/><path d="m206.356 403.944c-45.658 0-138.518 0-138.518 0l-10.302-36.633 10.302-36.623h138.518c-4.935 3.348-7.778 15.422-8.561 28.896-.299 5.079-.299 10.364 0 15.453.772 13.475 3.626 25.559 8.561 28.907z" fill="#5392f9"/><path d="m197.795 375.037h-129.958v-15.453h129.957c-.298 5.079-.298 10.364.001 15.453z" fill="#4071f7"/><path d="m258.833 343.03 10.302 24.286-10.302 24.287c-20.841 6.779-40.538 12.342-49.15 12.342h-3.327c-11.713-7.953-19.419-21.397-19.419-36.633 0-15.226 7.706-28.67 19.419-36.623h3.327c8.612-.001 28.309 5.562 49.15 12.341z" fill="#eec06b"/><path d="m307.432 374.632c-13.189 4.85-31.289 11.332-48.603 16.97v-48.569c17.314 5.638 35.413 12.121 48.603 16.971 6.808 2.504 6.808 12.125 0 14.628z" fill="#407194"/><path d="m14.476 394.942h21.858l11.332-27.626-11.332-27.622h-21.858c-7.995 0-14.476 6.481-14.476 14.476v26.296c0 7.995 6.481 14.476 14.476 14.476z" fill="#db387e"/><path d="m41.946 319.335h20.284c3.099 0 5.612 2.513 5.612 5.612v84.742c0 3.099-2.513 5.612-5.612 5.612h-20.284c-3.099 0-5.612-2.513-5.612-5.612v-84.742c0-3.099 2.512-5.612 5.612-5.612z" fill="#eec06b"/><path d="m300.252 325.725c-39.091 0-70.893-31.803-70.893-70.893s31.803-70.892 70.893-70.892 70.893 31.802 70.893 70.892-31.802 70.893-70.893 70.893zm0-126.333c-30.57 0-55.441 24.87-55.441 55.44s24.871 55.441 55.441 55.441 55.44-24.87 55.44-55.441c0-30.569-24.87-55.44-55.44-55.44z" fill="#9cd169"/><path d="m294.128 262.558h-107.159c-7.637 0-13.851-6.213-13.851-13.85v-107.159c0-7.638 6.214-13.851 13.851-13.851h107.158c7.637 0 13.851 6.213 13.851 13.851v107.159c0 7.637-6.213 13.85-13.85 13.85zm-105.557-15.452h103.955v-103.955h-103.955zm105.557-103.955h.01z" fill="#db387e"/></g></svg>