<svg id="Layer_1" height="512" viewBox="0 0 512 512" width="512" xmlns="http://www.w3.org/2000/svg" data-name="Layer 1"><path d="m399.033 232.877h-1.6a6 6 0 0 1 0-12h1.6a30.332 30.332 0 0 0 30.3-30.3 6 6 0 0 1 12 0 42.346 42.346 0 0 1 -42.3 42.3z" fill="#dbb7ad"/><path d="m232.65 85.92a199.084 199.084 0 0 0 -34.91 3.07l-.02.01a75.2 75.2 0 0 0 -64.87-37.09l1.85 6.02a108.881 108.881 0 0 1 4.06 44.25h-.01a164.326 164.326 0 0 0 -81.58 66.14l-9.33 14.74h-24.3a12.549 12.549 0 0 0 -12.54 12.55v79.64a12.549 12.549 0 0 0 12.54 12.55h25.16a135.952 135.952 0 0 0 22.29 33.13 108.772 108.772 0 0 1 27.82 72.96 18.505 18.505 0 0 0 18.5 18.5h25.73a18.5 18.5 0 0 0 18.5-18.5 18.505 18.505 0 0 1 18.49-18.49h48.02a18.494 18.494 0 0 1 18.5 18.49 18.505 18.505 0 0 0 18.5 18.5h48.23l84.98-153.6a167.726 167.726 0 0 0 1.39-21.61c0-83.54-74.77-151.26-167-151.26z" fill="#f8d2c5"/><path d="m399.43 256.96a101.846 101.846 0 1 1 -1.17.01c.39-.01.78-.01 1.17-.01z" fill="#f2cd7d"/><path d="m129.81 393.89a108.772 108.772 0 0 0 -27.82-72.96 135.952 135.952 0 0 1 -22.29-33.13h-25.16a12.549 12.549 0 0 1 -12.54-12.55v-79.64a12.549 12.549 0 0 1 12.54-12.55h24.3l9.33-14.74a164.326 164.326 0 0 1 81.58-66.14h.01a108.9 108.9 0 0 0 -3.544-42.48 74.952 74.952 0 0 0 -33.366-7.79l1.85 6.02a108.881 108.881 0 0 1 4.06 44.25h-.01a164.326 164.326 0 0 0 -81.58 66.14l-9.33 14.74h-24.3a12.549 12.549 0 0 0 -12.54 12.55v79.64a12.549 12.549 0 0 0 12.54 12.55h25.16a135.952 135.952 0 0 0 22.29 33.13 108.772 108.772 0 0 1 27.82 72.96 18.505 18.505 0 0 0 18.5 18.5h25.73a18.583 18.583 0 0 0 2.634-.209 18.462 18.462 0 0 1 -15.864-18.291z" fill="#dbb7ad"/><path d="m343.76 411.47a101.571 101.571 0 0 1 71.207-153.329 102.43 102.43 0 0 0 -15.537-1.181c-.39 0-.78 0-1.17.01a101.564 101.564 0 1 0 16.713 201.938 101.556 101.556 0 0 1 -71.213-47.438z" fill="#d1af6b"/><path d="m128.158 202.229a27.357 27.357 0 0 1 -27.326-27.329 6 6 0 0 1 12 0 15.326 15.326 0 1 0 30.652 0 6 6 0 0 1 12 0 27.358 27.358 0 0 1 -27.326 27.329z" fill="#c1a099"/><path d="m399.433 352a17.083 17.083 0 1 1 17.084-17.083 6 6 0 0 0 12 0 29.131 29.131 0 0 0 -23.084-28.457v-7.309a6 6 0 0 0 -12 0v7.309a29.083 29.083 0 0 0 6 57.54 17.08 17.08 0 0 1 .164 34.159c-.055 0-.108-.009-.164-.009s-.109.007-.164.009a17.1 17.1 0 0 1 -16.919-17.075 6 6 0 1 0 -12 0 29.13 29.13 0 0 0 23.083 28.457v8.359a6 6 0 0 0 12 0v-8.359a29.083 29.083 0 0 0 -6-57.541z" fill="#d8a43d"/><g fill="#f4f8fc"><path d="m321.649 244.474a6 6 0 0 1 -3.008-11.2c3.091-1.787 6.3-3.463 9.531-4.983a6 6 0 0 1 5.1 10.86c-2.928 1.376-5.832 2.894-8.631 4.512a5.967 5.967 0 0 1 -2.992.811z"/><path d="m267.03 311.4a6 6 0 0 1 -5.695-7.893 126.986 126.986 0 0 1 17.515-34.235 128.385 128.385 0 0 1 19.94-21.833 6 6 0 0 1 7.868 9.061 116.267 116.267 0 0 0 -18.072 19.788 114.986 114.986 0 0 0 -15.863 31 6 6 0 0 1 -5.693 4.112z"/></g></svg>