    <svg id="wave" style="transform:rotate(180deg); transition: 0.3s" viewBox="0 0 1440 100" version="1.1" xmlns="http://www.w3.org/2000/svg"><defs><linearGradient id="sw-gradient-0" x1="0" x2="0" y1="1" y2="0"><stop stop-color="rgba(245, 158, 11, 1)" offset="0%"></stop><stop stop-color="rgba(251, 191, 36, 1)" offset="100%"></stop></linearGradient></defs><path style="transform:translate(0, 0px); opacity:1" fill="url(#sw-gradient-0)" d="M0,80L26.7,66.7C53.3,53,107,27,160,15C213.3,3,267,7,320,11.7C373.3,17,427,23,480,35C533.3,47,587,63,640,65C693.3,67,747,53,800,41.7C853.3,30,907,20,960,25C1013.3,30,1067,50,1120,60C1173.3,70,1227,70,1280,63.3C1333.3,57,1387,43,1440,33.3C1493.3,23,1547,17,1600,21.7C1653.3,27,1707,43,1760,48.3C1813.3,53,1867,47,1920,50C1973.3,53,2027,67,2080,66.7C2133.3,67,2187,53,2240,50C2293.3,47,2347,53,2400,48.3C2453.3,43,2507,27,2560,18.3C2613.3,10,2667,10,2720,13.3C2773.3,17,2827,23,2880,28.3C2933.3,33,2987,37,3040,35C3093.3,33,3147,27,3200,25C3253.3,23,3307,27,3360,23.3C3413.3,20,3467,10,3520,10C3573.3,10,3627,20,3680,25C3733.3,30,3787,30,3813,30L3840,30L3840,100L3813.3,100C3786.7,100,3733,100,3680,100C3626.7,100,3573,100,3520,100C3466.7,100,3413,100,3360,100C3306.7,100,3253,100,3200,100C3146.7,100,3093,100,3040,100C2986.7,100,2933,100,2880,100C2826.7,100,2773,100,2720,100C2666.7,100,2613,100,2560,100C2506.7,100,2453,100,2400,100C2346.7,100,2293,100,2240,100C2186.7,100,2133,100,2080,100C2026.7,100,1973,100,1920,100C1866.7,100,1813,100,1760,100C1706.7,100,1653,100,1600,100C1546.7,100,1493,100,1440,100C1386.7,100,1333,100,1280,100C1226.7,100,1173,100,1120,100C1066.7,100,1013,100,960,100C906.7,100,853,100,800,100C746.7,100,693,100,640,100C586.7,100,533,100,480,100C426.7,100,373,100,320,100C266.7,100,213,100,160,100C106.7,100,53,100,27,100L0,100Z"></path></svg>